<svg width="141" height="18" viewBox="0 0 141 18" fill="none" xmlns="http://www.w3.org/2000/svg">
<path d="M9.582 10.422H3.598V17H0.782V0.918H10.726V3.514H3.598V7.892H9.582V10.422ZM11.3925 11.544C11.3925 8.156 13.8345 5.824 17.2005 5.824C20.5665 5.824 23.0085 8.156 23.0085 11.544C23.0085 14.932 20.5665 17.264 17.2005 17.264C13.8345 17.264 11.3925 14.932 11.3925 11.544ZM14.0765 11.544C14.0765 13.524 15.3525 14.866 17.2005 14.866C19.0485 14.866 20.3245 13.524 20.3245 11.544C20.3245 9.564 19.0485 8.222 17.2005 8.222C15.3525 8.222 14.0765 9.564 14.0765 11.544ZM31.956 6.088V8.574H30.966C29.03 8.574 27.82 9.608 27.82 11.72V17H25.136V6.154H27.666L27.82 7.738C28.282 6.66 29.316 5.934 30.768 5.934C31.142 5.934 31.516 5.978 31.956 6.088ZM38.2695 17.286C35.0355 17.286 32.7695 14.932 32.7695 11.566C32.7695 8.156 34.9915 5.802 38.1815 5.802C41.4375 5.802 43.5055 7.98 43.5055 11.368V12.182L35.3215 12.204C35.5195 14.118 36.5315 15.086 38.3135 15.086C39.7875 15.086 40.7555 14.514 41.0635 13.48H43.5495C43.0875 15.856 41.1075 17.286 38.2695 17.286ZM38.2035 8.002C36.6195 8.002 35.6515 8.86 35.3875 10.488H40.8435C40.8435 8.992 39.8095 8.002 38.2035 8.002ZM48.2609 17L43.9489 6.132H46.8089L48.7009 11.126C49.1629 12.424 49.5369 13.546 49.6689 14.14C49.8229 13.458 50.2189 12.314 50.6809 11.126L52.6609 6.132H55.4329L50.9009 17H48.2609ZM61.3007 17.286C58.0667 17.286 55.8007 14.932 55.8007 11.566C55.8007 8.156 58.0227 5.802 61.2127 5.802C64.4687 5.802 66.5367 7.98 66.5367 11.368V12.182L58.3527 12.204C58.5507 14.118 59.5627 15.086 61.3447 15.086C62.8187 15.086 63.7867 14.514 64.0947 13.48H66.5807C66.1187 15.856 64.1387 17.286 61.3007 17.286ZM61.2347 8.002C59.6507 8.002 58.6827 8.86 58.4187 10.488H63.8747C63.8747 8.992 62.8407 8.002 61.2347 8.002ZM75.5048 6.088V8.574H74.5148C72.5788 8.574 71.3688 9.608 71.3688 11.72V17H68.6848V6.154H71.2148L71.3688 7.738C71.8308 6.66 72.8648 5.934 74.3168 5.934C74.6908 5.934 75.0648 5.978 75.5048 6.088ZM75.2783 3.514V0.918H87.5103V3.514H82.8023V17H79.9863V3.514H75.2783ZM90.6089 3.954C89.6849 3.954 88.9589 3.228 88.9589 2.326C88.9589 1.424 89.6849 0.72 90.6089 0.72C91.4889 0.72 92.2149 1.424 92.2149 2.326C92.2149 3.228 91.4889 3.954 90.6089 3.954ZM89.2669 17V6.132H91.9509V17H89.2669ZM94.0859 11.544C94.0859 8.178 96.3079 5.802 99.5199 5.802C102.49 5.802 104.514 7.452 104.8 10.07H102.116C101.808 8.838 100.906 8.2 99.6299 8.2C97.9139 8.2 96.7699 9.498 96.7699 11.544C96.7699 13.59 97.8259 14.866 99.5419 14.866C100.884 14.866 101.83 14.206 102.116 13.018H104.822C104.492 15.548 102.38 17.286 99.5419 17.286C96.2419 17.286 94.0859 14.998 94.0859 11.544ZM109.526 17H106.864V0.632H109.526V10.686L113.75 6.132H117.116L112.98 10.444L117.028 17H113.948L111.11 12.424L109.526 14.074V17ZM123.025 17.286C119.791 17.286 117.525 14.932 117.525 11.566C117.525 8.156 119.747 5.802 122.937 5.802C126.193 5.802 128.261 7.98 128.261 11.368V12.182L120.077 12.204C120.275 14.118 121.287 15.086 123.069 15.086C124.543 15.086 125.511 14.514 125.819 13.48H128.305C127.843 15.856 125.863 17.286 123.025 17.286ZM122.959 8.002C121.375 8.002 120.407 8.86 120.143 10.488H125.599C125.599 8.992 124.565 8.002 122.959 8.002ZM133.998 17H131.314V8.376H129.224V6.132H131.314V2.744H133.998V6.132H136.11V8.376H133.998V17ZM138.917 17.264C137.949 17.264 137.135 16.472 137.135 15.526C137.135 14.558 137.949 13.766 138.917 13.766C139.885 13.766 140.699 14.558 140.699 15.526C140.699 16.472 139.885 17.264 138.917 17.264Z" fill="#000057"/>
</svg>
